<svg width="300" height="300" viewBox="0 0 300 300" fill="none" xmlns="http://www.w3.org/2000/svg">
  <rect width="300" height="300" rx="36" fill="#F7F2E8"/>
  <path d="M39 89H132V182H39V89Z" fill="#A6344A"/>
  <path d="M154 89H261V182H154V89Z" fill="#12A6A2"/>
  <path d="M11 215H132V286H11V215Z" fill="#E8943B"/>
  <path d="M154 215H257V286H154V215Z" fill="#355E86"/>
  <path d="M81 111H90V160H81V111Z" fill="white"/>
  <path d="M195 110H204V159H195V110Z" fill="white"/>
  <path d="M195 157H230V166H195V157Z" fill="white"/>
  <path d="M228 110H237V181H228L203 141V131L228 164V110Z" fill="white"/>
  <path d="M81 236H119V245H90V279H119V288H81V236Z" fill="white"/>
  <path d="M205 237L228 287H218L212 273H182L176 287H166L189 237H205ZM207 264L197 242L187 264H207Z" fill="white"/>
  <path d="M114 72H146V85H127V103H146V116H114V72Z" fill="#A6344A"/>
  <path d="M159 72H191V85H172V103H191V116H159V72Z" fill="#12A6A2"/>
  <path d="M13 143H38V168H25V156H13V143Z" fill="#A6344A"/>
  <path d="M262 143H287V168H274V156H262V143Z" fill="#12A6A2"/>
  <path d="M13 215H38V240H25V228H13V215Z" fill="#E8943B"/>
  <path d="M262 215H287V240H274V228H262V215Z" fill="#355E86"/>
  <path d="M109 263H134V288H121V276H109V263Z" fill="#E8943B"/>
  <path d="M159 263H184V288H171V276H159V263Z" fill="#355E86"/>
</svg>
