<svg width="768" height="768" viewBox="0 0 768 768" fill="none" xmlns="http://www.w3.org/2000/svg">
  <rect width="768" height="768" fill="white"/>

  <rect x="100" y="99" width="272" height="272" fill="#A6344A"/>
  <rect x="388" y="99" width="272" height="272" fill="#12A6A2"/>
  <rect x="100" y="389" width="272" height="272" fill="#E8943B"/>
  <rect x="388" y="389" width="272" height="272" fill="#355E86"/>

  <path d="M222 124H338V240H222V124Z" fill="#A6344A"/>
  <path d="M238 140H322V224H238V140Z" fill="white"/>
  <path d="M258 160H302V204H258V160Z" fill="#A6344A"/>

  <path d="M401 124H517V240H401V124Z" fill="#12A6A2"/>
  <path d="M417 140H501V224H417V140Z" fill="white"/>
  <path d="M437 160H481V204H437V160Z" fill="#12A6A2"/>

  <path d="M28 278H92V342H28V278Z" fill="#A6344A"/>
  <path d="M40 290H80V330H40V290Z" fill="white"/>
  <path d="M50 300H70V320H50V300Z" fill="#A6344A"/>

  <path d="M660 278H724V342H660V278Z" fill="#12A6A2"/>
  <path d="M672 290H712V330H672V290Z" fill="white"/>
  <path d="M682 300H702V320H682V300Z" fill="#12A6A2"/>

  <path d="M28 386H92V450H28V386Z" fill="#E8943B"/>
  <path d="M40 398H80V438H40V398Z" fill="white"/>
  <path d="M50 408H70V428H50V408Z" fill="#E8943B"/>

  <path d="M660 386H724V450H660V386Z" fill="#355E86"/>
  <path d="M672 398H712V438H672V398Z" fill="white"/>
  <path d="M682 408H702V428H682V408Z" fill="#355E86"/>

  <path d="M222 670H338V786H222V670Z" fill="#E8943B"/>
  <path d="M238 686H322V770H238V686Z" fill="white"/>
  <path d="M258 706H302V750H258V706Z" fill="#E8943B"/>

  <path d="M401 670H517V786H401V670Z" fill="#355E86"/>
  <path d="M417 686H501V770H417V770Z" fill="white"/>
  <path d="M437 706H481V750H437V750Z" fill="#355E86"/>

  <rect x="223" y="124" width="20" height="193" rx="6" fill="white"/>

  <path d="M486 124C489 124 493 126 494 129L589 262C592 266 589 272 584 272H564C561 272 558 270 556 267L485 165V256C485 260 482 263 478 263H459C455 263 452 260 452 256V132C452 128 455 124 459 124H486Z" fill="white"/>
  <path d="M444 124C448 124 451 127 451 131V263H409C405 263 402 260 402 256V131C402 127 405 124 409 124H444Z" fill="white"/>
  <rect x="401" y="274" width="92" height="18" rx="6" fill="white"/>

  <path d="M221 438C221 434 224 431 228 431H344C348 431 351 434 351 438V452C351 456 348 459 344 459H249V586H344C348 586 351 589 351 593V607C351 611 348 614 344 614H228C224 614 221 611 221 607V438Z" fill="white"/>

  <path d="M532 447L596 592C598 597 595 602 590 602H565C562 602 559 600 558 597L544 563H464L450 597C449 600 446 602 443 602H418C413 602 410 597 412 592L476 447C477 444 480 442 483 442H525C528 442 531 444 532 447ZM477 535H531L504 471L477 535Z" fill="white"/>
</svg>
