<svg width="512" height="512" viewBox="0 0 512 512" fill="none" xmlns="http://www.w3.org/2000/svg">
  <rect width="512" height="512" rx="24" fill="#FAF7F0"/>

  <path d="M68 98H232V262H68V98Z" fill="#A6344A"/>
  <path d="M260 98H444V262H260V98Z" fill="#12A6A2"/>
  <path d="M68 290H232V454H68V290Z" fill="#E8943B"/>
  <path d="M260 290H444V454H260V290Z" fill="#355E86"/>

  <path d="M148 136H162V224H148V136Z" fill="white"/>
  <path d="M335 134H349V222H335V134Z" fill="white"/>
  <path d="M335 208H392V222H335V208Z" fill="white"/>
  <path d="M391 134H405V224H390L334 157V139L391 211V134Z" fill="white"/>
  <path d="M143 340H196V354H157V399H196V413H143V340Z" fill="white"/>
  <path d="M354 338L402 412H385L373 392H329L317 412H300L348 338H354ZM366 378L351 353L336 378H366Z" fill="white"/>

  <path d="M194 74H248V88H208V112H248V126H194V74Z" fill="#A6344A"/>
  <path d="M286 74H340V88H300V112H340V126H286V74Z" fill="#12A6A2"/>
  <path d="M28 198H70V240H56V212H42V240H28V198Z" fill="#A6344A"/>
  <path d="M442 198H484V240H470V212H456V240H442V198Z" fill="#12A6A2"/>
  <path d="M28 290H70V332H56V304H42V332H28V290Z" fill="#E8943B"/>
  <path d="M442 290H484V332H470V304H456V332H442V290Z" fill="#355E86"/>
  <path d="M194 414H248V468H234V428H208V468H194V414Z" fill="#E8943B"/>
  <path d="M286 414H340V468H326V428H300V468H286V414Z" fill="#355E86"/>

  <path d="M174 56H228V70H188V96H214V110H174V56Z" fill="white"/>
  <path d="M304 56H358V70H318V96H344V110H304V56Z" fill="white"/>
  <path d="M18 188H58V228H44V202H32V228H18V188Z" fill="white"/>
  <path d="M454 188H494V228H480V202H468V228H454V188Z" fill="white"/>
  <path d="M18 280H58V320H44V294H32V320H18V280Z" fill="white"/>
  <path d="M454 280H494V320H480V294H468V320H454V280Z" fill="white"/>
  <path d="M174 424H228V478H214V438H188V478H174V424Z" fill="white"/>
  <path d="M304 424H358V478H344V438H318V478H304V424Z" fill="white"/>
</svg>
